# Blender 4.4.1
# www.blender.org
mtllib floor.mtl
o Cube
v 1.000000 1.000000 -1.000000
v 1.000000 -1.000000 -1.000000
v 1.000000 1.000000 1.000000
v 1.000000 -1.000000 1.000000
v -1.000000 1.000000 -1.000000
v -1.000000 -1.000000 -1.000000
v -1.000000 1.000000 1.000000
v -1.000000 -1.000000 1.000000
vn -0.0000 1.0000 -0.0000
vn -0.0000 -0.0000 1.0000
vn -1.0000 -0.0000 -0.0000
vn -0.0000 -1.0000 -0.0000
vn 1.0000 -0.0000 -0.0000
vn -0.0000 -0.0000 -1.0000
vt 0.500361 0.624999
vt 0.501084 0.874998
vt 0.251085 0.875721
vt 0.250362 0.625722
vt 0.249640 0.375723
vt 0.000363 0.626445
vt -0.000359 0.376446
vt 0.999637 0.373555
vt 1.000359 0.623554
vt 0.750360 0.624277
vt 0.749638 0.374278
vt 0.498916 0.125002
vt 0.499639 0.375001
vt 0.248917 0.125724
s 0
usemtl Material
f 1/1/1 5/2/1 7/3/1 3/4/1
f 4/5/2 3/4/2 7/6/2 8/7/2
f 8/8/3 7/9/3 5/10/3 6/11/3
f 6/12/4 2/13/4 4/5/4 8/14/4
f 2/13/5 1/1/5 3/4/5 4/5/5
f 6/11/6 5/10/6 1/1/6 2/13/6
