# Blender 4.4.1
# www.blender.org
mtllib ladder.mtl
o kladder
v 0.300000 -0.500000 0.500000
v 0.300000 0.500000 0.500000
v 0.300000 -0.500000 0.300000
v 0.300000 0.500000 0.300000
v 0.500000 -0.500000 0.500000
v 0.500000 0.500000 0.500000
v 0.500000 -0.500000 0.300000
v 0.500000 0.500000 0.300000
v 0.300000 0.000000 0.500000
v 0.300000 0.000000 0.300000
v 0.500000 0.000000 0.300000
v 0.500000 0.000000 0.500000
v 0.300000 0.250000 0.500000
v 0.300000 0.250000 0.300000
v 0.500000 0.250000 0.300000
v 0.500000 0.250000 0.500000
v 0.300000 -0.250000 0.300000
v 0.500000 -0.250000 0.300000
v 0.500000 -0.250000 0.500000
v 0.300000 -0.250000 0.500000
v 0.300000 0.375000 0.500000
v 0.300000 0.375000 0.300000
v 0.500000 0.375000 0.300000
v 0.500000 0.375000 0.500000
v 0.300000 0.125000 0.300000
v 0.500000 0.125000 0.300000
v 0.500000 0.125000 0.500000
v 0.300000 0.125000 0.500000
v 0.300000 -0.125000 0.500000
v 0.300000 -0.125000 0.300000
v 0.500000 -0.125000 0.300000
v 0.500000 -0.125000 0.500000
v 0.300000 -0.375000 0.300000
v 0.500000 -0.375000 0.300000
v 0.500000 -0.375000 0.500000
v 0.300000 -0.375000 0.500000
v -0.300000 0.375000 0.300000
v -0.300000 0.250000 0.300000
v -0.300000 0.250000 0.500000
v -0.300000 0.375000 0.500000
v -0.300000 0.125000 0.300000
v -0.300000 0.000000 0.300000
v -0.300000 0.000000 0.500000
v -0.300000 0.125000 0.500000
v -0.300000 -0.125000 0.300000
v -0.300000 -0.250000 0.300000
v -0.300000 -0.250000 0.500000
v -0.300000 -0.125000 0.500000
v -0.300000 -0.500000 0.300000
v -0.300000 -0.500000 0.500000
v -0.300000 -0.375000 0.300000
v -0.300000 -0.375000 0.500000
v -0.300000 0.500000 0.300000
v -0.300000 0.500000 0.500000
v -0.500000 -0.500000 0.300000
v -0.500000 0.500000 0.300000
v -0.500000 -0.500000 0.500000
v -0.500000 0.500000 0.500000
v -0.500000 0.000000 0.500000
v -0.500000 0.000000 0.300000
v -0.500000 0.250000 0.500000
v -0.500000 0.250000 0.300000
v -0.500000 -0.250000 0.500000
v -0.500000 -0.250000 0.300000
v -0.500000 0.375000 0.500000
v -0.500000 0.375000 0.300000
v -0.500000 0.125000 0.500000
v -0.500000 0.125000 0.300000
v -0.500000 -0.125000 0.500000
v -0.500000 -0.125000 0.300000
v -0.500000 -0.375000 0.500000
v -0.500000 -0.375000 0.300000
vn -1.0000 -0.0000 -0.0000
vn -0.0000 -0.0000 -1.0000
vn 1.0000 -0.0000 -0.0000
vn -0.0000 -0.0000 1.0000
vn -0.0000 -1.0000 -0.0000
vn -0.0000 1.0000 -0.0000
vt 0.593750 0.000000
vt 0.625000 0.000000
vt 0.625000 0.250000
vt 0.593750 0.250000
vt 0.625000 0.500000
vt 0.593750 0.500000
vt 0.625000 0.750000
vt 0.593750 0.750000
vt 0.625000 1.000000
vt 0.593750 1.000000
vt 0.125000 0.500000
vt 0.375000 0.500000
vt 0.375000 0.750000
vt 0.125000 0.750000
vt 0.875000 0.500000
vt 0.875000 0.750000
vt 0.468750 0.750000
vt 0.500000 0.750000
vt 0.500000 1.000000
vt 0.468750 1.000000
vt 0.468750 0.500000
vt 0.500000 0.500000
vt 0.468750 0.250000
vt 0.500000 0.250000
vt 0.468750 0.000000
vt 0.500000 0.000000
vt 0.531250 0.750000
vt 0.562500 0.750000
vt 0.562500 1.000000
vt 0.531250 1.000000
vt 0.531250 0.500000
vt 0.562500 0.500000
vt 0.531250 0.250000
vt 0.562500 0.250000
vt 0.531250 0.000000
vt 0.562500 0.000000
vt 0.406250 0.000000
vt 0.437500 0.000000
vt 0.437500 0.250000
vt 0.406250 0.250000
vt 0.437500 0.500000
vt 0.406250 0.500000
vt 0.437500 0.750000
vt 0.406250 0.750000
vt 0.437500 1.000000
vt 0.406250 1.000000
vt 0.375000 1.000000
vt 0.375000 0.250000
vt 0.375000 0.000000
s 0
f 21/1/1 2/2/1 4/3/1 22/4/1
f 22/4/2 4/3/2 8/5/2 23/6/2
f 23/6/3 8/5/3 6/7/3 24/8/3
f 24/8/4 6/7/4 2/9/4 21/10/4
f 3/11/5 7/12/5 5/13/5 1/14/5
f 8/5/6 4/15/6 2/16/6 6/7/6
f 32/17/4 12/18/4 9/19/4 29/20/4
f 31/21/3 11/22/3 12/18/3 32/17/3
f 30/23/2 10/24/2 11/22/2 31/21/2
f 29/25/1 9/26/1 10/24/1 30/23/1
f 27/27/4 16/28/4 13/29/4 28/30/4
f 26/31/3 15/32/3 16/28/3 27/27/3
f 25/33/2 14/34/2 15/32/2 26/31/2
f 28/35/1 13/36/1 14/34/1 25/33/1
f 36/37/1 20/38/1 17/39/1 33/40/1
f 33/40/2 17/39/2 18/41/2 34/42/2
f 34/42/3 18/41/3 19/43/3 35/44/3
f 35/44/4 19/43/4 20/45/4 36/46/4
f 16/28/4 24/8/4 21/10/4 13/29/4
f 15/32/3 23/6/3 24/8/3 16/28/3
f 14/34/2 22/4/2 23/6/2 15/32/2
f 14/34/5 13/36/5 39/36/5 38/34/5
f 9/19/4 28/30/4 44/30/4 43/19/4
f 10/24/2 25/33/2 26/31/2 11/22/2
f 11/22/3 26/31/3 27/27/3 12/18/3
f 12/18/4 27/27/4 28/30/4 9/19/4
f 29/25/6 30/23/6 45/23/6 48/25/6
f 17/39/2 30/23/2 31/21/2 18/41/2
f 18/41/3 31/21/3 32/17/3 19/43/3
f 19/43/4 32/17/4 29/20/4 20/45/4
f 5/13/4 35/44/4 36/46/4 1/47/4
f 7/12/3 34/42/3 35/44/3 5/13/3
f 3/48/2 33/40/2 34/42/2 7/12/2
f 3/11/5 1/14/5 50/14/5 49/11/5
f 39/36/1 40/1/1 37/4/1 38/34/1
f 13/29/4 21/10/4 40/10/4 39/29/4
f 22/4/2 14/34/2 38/34/2 37/4/2
f 21/1/6 22/4/6 37/4/6 40/1/6
f 43/26/1 44/35/1 41/33/1 42/24/1
f 10/24/5 9/26/5 43/26/5 42/24/5
f 28/35/6 25/33/6 41/33/6 44/35/6
f 25/33/2 10/24/2 42/24/2 41/33/2
f 47/38/1 48/25/1 45/23/1 46/39/1
f 17/39/5 20/38/5 47/38/5 46/39/5
f 20/45/4 29/20/4 48/20/4 47/45/4
f 30/23/2 17/39/2 46/39/2 45/23/2
f 50/49/1 52/37/1 51/40/1 49/48/1
f 33/40/2 3/48/2 49/48/2 51/40/2
f 36/37/6 33/40/6 51/40/6 52/37/6
f 1/47/4 36/46/4 52/46/4 50/47/4
f 37/1/3 53/2/3 54/3/3 40/4/3
f 40/4/4 54/3/4 58/5/4 65/6/4
f 65/6/1 58/5/1 56/7/1 66/8/1
f 66/8/2 56/7/2 53/9/2 37/10/2
f 50/11/5 57/12/5 55/13/5 49/14/5
f 58/5/6 54/15/6 53/16/6 56/7/6
f 70/17/2 60/18/2 42/19/2 45/20/2
f 69/21/1 59/22/1 60/18/1 70/17/1
f 48/23/4 43/24/4 59/22/4 69/21/4
f 45/25/3 42/26/3 43/24/3 48/23/3
f 68/27/2 62/28/2 38/29/2 41/30/2
f 67/31/1 61/32/1 62/28/1 68/27/1
f 44/33/4 39/34/4 61/32/4 67/31/4
f 41/35/3 38/36/3 39/34/3 44/33/3
f 51/37/3 46/38/3 47/39/3 52/40/3
f 52/40/4 47/39/4 63/41/4 71/42/4
f 71/42/1 63/41/1 64/43/1 72/44/1
f 72/44/2 64/43/2 46/45/2 51/46/2
f 62/28/2 66/8/2 37/10/2 38/29/2
f 61/32/1 65/6/1 66/8/1 62/28/1
f 39/34/4 40/4/4 65/6/4 61/32/4
f 43/24/4 44/33/4 67/31/4 59/22/4
f 59/22/1 67/31/1 68/27/1 60/18/1
f 60/18/2 68/27/2 41/30/2 42/19/2
f 47/39/4 48/23/4 69/21/4 63/41/4
f 63/41/1 69/21/1 70/17/1 64/43/1
f 64/43/2 70/17/2 45/20/2 46/45/2
f 55/13/2 72/44/2 51/46/2 49/47/2
f 57/12/1 71/42/1 72/44/1 55/13/1
f 50/48/4 52/40/4 71/42/4 57/12/4
