# Blender 4.4.1
# www.blender.org
mtllib goal.mtl
o トーラス
v 0.990715 -0.000000 -0.000000
v 0.964169 -0.000000 0.099071
v 0.891644 -0.000000 0.171597
v 0.792572 -0.000000 0.198143
v 0.693501 -0.000000 0.171597
v 0.620975 -0.000000 0.099071
v 0.594429 -0.000000 -0.000000
v 0.620975 -0.000000 -0.099072
v 0.693501 -0.000000 -0.171597
v 0.792572 -0.000000 -0.198143
v 0.891644 -0.000000 -0.171597
v 0.964169 -0.000000 -0.099072
v 0.982240 0.129314 -0.000000
v 0.955921 0.125850 0.099071
v 0.884016 0.116383 0.171597
v 0.785792 0.103452 0.198143
v 0.687568 0.090520 0.171597
v 0.615663 0.081054 0.099071
v 0.589344 0.077589 -0.000000
v 0.615663 0.081054 -0.099072
v 0.687568 0.090520 -0.171597
v 0.785792 0.103452 -0.198143
v 0.884016 0.116383 -0.171597
v 0.955921 0.125850 -0.099072
v 0.956958 0.256416 -0.000000
v 0.931316 0.249545 0.099071
v 0.861262 0.230774 0.171597
v 0.765566 0.205133 0.198143
v 0.669870 0.179491 0.171597
v 0.599816 0.160720 0.099071
v 0.574175 0.153850 -0.000000
v 0.599816 0.160720 -0.099072
v 0.669870 0.179491 -0.171597
v 0.765566 0.205133 -0.198143
v 0.861262 0.230774 -0.171597
v 0.931316 0.249545 -0.099072
v 0.915302 0.379131 -0.000000
v 0.890776 0.368972 0.099071
v 0.823771 0.341217 0.171597
v 0.732241 0.303304 0.198143
v 0.640711 0.265391 0.171597
v 0.573706 0.237637 0.099071
v 0.549181 0.227478 -0.000000
v 0.573706 0.237637 -0.099072
v 0.640711 0.265391 -0.171597
v 0.732241 0.303304 -0.198143
v 0.823771 0.341217 -0.171597
v 0.890776 0.368972 -0.099072
v 0.857985 0.495358 -0.000000
v 0.834995 0.482085 0.099071
v 0.772186 0.445822 0.171597
v 0.686388 0.396286 0.198143
v 0.600589 0.346750 0.171597
v 0.537780 0.310488 0.099072
v 0.514791 0.297215 -0.000000
v 0.537780 0.310488 -0.099072
v 0.600589 0.346750 -0.171597
v 0.686388 0.396286 -0.198143
v 0.772186 0.445822 -0.171597
v 0.834995 0.482085 -0.099072
v 0.785987 0.603109 -0.000000
v 0.764927 0.586949 0.099071
v 0.707389 0.542798 0.171597
v 0.628790 0.482488 0.198143
v 0.550191 0.422177 0.171597
v 0.492653 0.378026 0.099072
v 0.471592 0.361866 -0.000000
v 0.492653 0.378026 -0.099072
v 0.550191 0.422177 -0.171597
v 0.628790 0.482488 -0.198143
v 0.707389 0.542798 -0.171597
v 0.764927 0.586949 -0.099072
v 0.700541 0.700542 -0.000000
v 0.681770 0.681771 0.099071
v 0.630487 0.630488 0.171597
v 0.560433 0.560434 0.198143
v 0.490379 0.490379 0.171597
v 0.439096 0.439096 0.099072
v 0.420325 0.420325 -0.000000
v 0.439096 0.439096 -0.099072
v 0.490379 0.490379 -0.171597
v 0.560433 0.560434 -0.198143
v 0.630487 0.630488 -0.171597
v 0.681770 0.681771 -0.099072
v 0.603109 0.785987 -0.000000
v 0.586949 0.764927 0.099072
v 0.542798 0.707389 0.171597
v 0.482487 0.628790 0.198143
v 0.422177 0.550191 0.171597
v 0.378026 0.492653 0.099072
v 0.361866 0.471592 -0.000000
v 0.378026 0.492653 -0.099072
v 0.422177 0.550191 -0.171597
v 0.482487 0.628790 -0.198143
v 0.542798 0.707389 -0.171597
v 0.586949 0.764927 -0.099072
v 0.495358 0.857985 -0.000000
v 0.482085 0.834995 0.099072
v 0.445822 0.772186 0.171597
v 0.396286 0.686388 0.198143
v 0.346751 0.600589 0.171597
v 0.310488 0.537780 0.099072
v 0.297215 0.514791 -0.000000
v 0.310488 0.537780 -0.099072
v 0.346751 0.600589 -0.171597
v 0.396286 0.686388 -0.198143
v 0.445822 0.772186 -0.171597
v 0.482085 0.834995 -0.099072
v 0.379130 0.915302 -0.000000
v 0.368972 0.890776 0.099072
v 0.341217 0.823772 0.171597
v 0.303304 0.732241 0.198143
v 0.265391 0.640711 0.171597
v 0.237637 0.573707 0.099072
v 0.227478 0.549181 -0.000000
v 0.237637 0.573707 -0.099072
v 0.265391 0.640711 -0.171597
v 0.303304 0.732241 -0.198143
v 0.341217 0.823772 -0.171597
v 0.368972 0.890776 -0.099072
v 0.256416 0.956958 0.000000
v 0.249545 0.931316 0.099072
v 0.230774 0.861262 0.171597
v 0.205133 0.765566 0.198143
v 0.179491 0.669870 0.171597
v 0.160720 0.599816 0.099072
v 0.153850 0.574175 0.000000
v 0.160720 0.599816 -0.099072
v 0.179491 0.669870 -0.171597
v 0.205133 0.765566 -0.198143
v 0.230774 0.861262 -0.171597
v 0.249545 0.931316 -0.099072
v 0.129314 0.982240 0.000000
v 0.125849 0.955921 0.099072
v 0.116383 0.884016 0.171597
v 0.103452 0.785792 0.198143
v 0.090520 0.687568 0.171597
v 0.081054 0.615663 0.099072
v 0.077589 0.589344 0.000000
v 0.081054 0.615663 -0.099072
v 0.090520 0.687568 -0.171597
v 0.103452 0.785792 -0.198143
v 0.116383 0.884016 -0.171597
v 0.125849 0.955921 -0.099072
v 0.000000 0.990716 0.000000
v 0.000000 0.964169 0.099072
v 0.000000 0.891644 0.171597
v 0.000000 0.792572 0.198143
v 0.000000 0.693501 0.171597
v 0.000000 0.620975 0.099072
v 0.000000 0.594429 0.000000
v 0.000000 0.620975 -0.099072
v 0.000000 0.693501 -0.171597
v 0.000000 0.792572 -0.198143
v 0.000000 0.891644 -0.171597
v 0.000000 0.964169 -0.099072
v -0.129314 0.982240 0.000000
v -0.125849 0.955921 0.099072
v -0.116383 0.884016 0.171597
v -0.103452 0.785792 0.198143
v -0.090520 0.687568 0.171597
v -0.081054 0.615663 0.099072
v -0.077589 0.589344 0.000000
v -0.081054 0.615663 -0.099072
v -0.090520 0.687568 -0.171597
v -0.103452 0.785792 -0.198143
v -0.116383 0.884016 -0.171597
v -0.125849 0.955921 -0.099072
v -0.256416 0.956958 0.000000
v -0.249545 0.931316 0.099072
v -0.230774 0.861262 0.171597
v -0.205133 0.765566 0.198143
v -0.179491 0.669870 0.171597
v -0.160720 0.599816 0.099072
v -0.153850 0.574175 0.000000
v -0.160720 0.599816 -0.099072
v -0.179491 0.669870 -0.171597
v -0.205133 0.765566 -0.198143
v -0.230774 0.861262 -0.171597
v -0.249545 0.931316 -0.099071
v -0.379130 0.915302 0.000000
v -0.368971 0.890777 0.099072
v -0.341217 0.823772 0.171597
v -0.303304 0.732242 0.198143
v -0.265391 0.640711 0.171597
v -0.237637 0.573707 0.099072
v -0.227478 0.549181 0.000000
v -0.237637 0.573707 -0.099071
v -0.265391 0.640711 -0.171597
v -0.303304 0.732242 -0.198143
v -0.341217 0.823772 -0.171597
v -0.368971 0.890777 -0.099071
v -0.495358 0.857985 0.000000
v -0.482084 0.834995 0.099072
v -0.445822 0.772186 0.171597
v -0.396286 0.686388 0.198143
v -0.346750 0.600589 0.171597
v -0.310488 0.537781 0.099072
v -0.297215 0.514791 0.000000
v -0.310488 0.537781 -0.099071
v -0.346750 0.600589 -0.171597
v -0.396286 0.686388 -0.198143
v -0.445822 0.772186 -0.171597
v -0.482084 0.834995 -0.099071
v -0.603109 0.785987 0.000000
v -0.586949 0.764927 0.099072
v -0.542798 0.707389 0.171597
v -0.482487 0.628790 0.198143
v -0.422177 0.550191 0.171597
v -0.378026 0.492653 0.099072
v -0.361866 0.471592 0.000000
v -0.378026 0.492653 -0.099071
v -0.422177 0.550191 -0.171597
v -0.482487 0.628790 -0.198143
v -0.542798 0.707389 -0.171597
v -0.586949 0.764927 -0.099071
v -0.700541 0.700542 0.000000
v -0.681770 0.681771 0.099072
v -0.630487 0.630488 0.171597
v -0.560433 0.560434 0.198143
v -0.490379 0.490379 0.171597
v -0.439096 0.439096 0.099072
v -0.420325 0.420325 0.000000
v -0.439096 0.439096 -0.099071
v -0.490379 0.490379 -0.171597
v -0.560433 0.560434 -0.198143
v -0.630487 0.630488 -0.171597
v -0.681770 0.681771 -0.099071
v -0.785987 0.603110 0.000000
v -0.764927 0.586950 0.099072
v -0.707388 0.542799 0.171597
v -0.628790 0.482488 0.198143
v -0.550191 0.422177 0.171597
v -0.492653 0.378026 0.099072
v -0.471592 0.361866 0.000000
v -0.492653 0.378026 -0.099071
v -0.550191 0.422177 -0.171597
v -0.628790 0.482488 -0.198143
v -0.707388 0.542799 -0.171597
v -0.764927 0.586950 -0.099071
v -0.857985 0.495358 0.000000
v -0.834995 0.482085 0.099072
v -0.772186 0.445822 0.171597
v -0.686388 0.396286 0.198143
v -0.600589 0.346750 0.171597
v -0.537780 0.310488 0.099072
v -0.514791 0.297215 0.000000
v -0.537780 0.310488 -0.099071
v -0.600589 0.346750 -0.171597
v -0.686388 0.396286 -0.198143
v -0.772186 0.445822 -0.171597
v -0.834995 0.482085 -0.099071
v -0.915302 0.379131 0.000000
v -0.890776 0.368972 0.099072
v -0.823771 0.341217 0.171597
v -0.732241 0.303304 0.198143
v -0.640711 0.265391 0.171597
v -0.573706 0.237637 0.099072
v -0.549181 0.227478 0.000000
v -0.573706 0.237637 -0.099071
v -0.640711 0.265391 -0.171597
v -0.732241 0.303304 -0.198143
v -0.823771 0.341217 -0.171597
v -0.890776 0.368972 -0.099071
v -0.956958 0.256416 0.000000
v -0.931316 0.249546 0.099072
v -0.861262 0.230775 0.171597
v -0.765566 0.205133 0.198143
v -0.669870 0.179491 0.171597
v -0.599816 0.160720 0.099072
v -0.574175 0.153850 0.000000
v -0.599816 0.160720 -0.099071
v -0.669870 0.179491 -0.171597
v -0.765566 0.205133 -0.198143
v -0.861262 0.230775 -0.171597
v -0.931316 0.249546 -0.099071
v -0.982240 0.129315 0.000000
v -0.955921 0.125850 0.099072
v -0.884016 0.116383 0.171597
v -0.785792 0.103452 0.198143
v -0.687568 0.090520 0.171597
v -0.615663 0.081054 0.099072
v -0.589344 0.077589 0.000000
v -0.615663 0.081054 -0.099071
v -0.687568 0.090520 -0.171597
v -0.785792 0.103452 -0.198143
v -0.884016 0.116383 -0.171597
v -0.955921 0.125850 -0.099071
v -0.990715 -0.000000 0.000000
v -0.964169 -0.000000 0.099072
v -0.891644 -0.000000 0.171597
v -0.792572 -0.000000 0.198143
v -0.693501 -0.000000 0.171597
v -0.620975 -0.000000 0.099072
v -0.594429 -0.000000 0.000000
v -0.620975 -0.000000 -0.099071
v -0.693501 -0.000000 -0.171597
v -0.792572 -0.000000 -0.198143
v -0.891644 -0.000000 -0.171597
v -0.964169 -0.000000 -0.099071
v -0.964169 -0.972188 -0.103126
v -0.891644 -0.972188 -0.175651
v -0.792572 -0.972188 -0.202197
v -0.693501 -0.972188 -0.175651
v -0.620975 -0.972188 -0.103126
v -0.594429 -0.972188 -0.004054
v -0.620975 -0.972188 0.095017
v -0.693501 -0.972188 0.167543
v -0.792572 -0.972188 0.194089
v -0.891644 -0.972188 0.167543
v -0.964169 -0.972188 0.095017
v -0.990715 -0.972188 -0.004054
v 0.964169 -0.972188 -0.103126
v 0.891644 -0.972188 -0.175651
v 0.792572 -0.972188 -0.202198
v 0.693501 -0.972188 -0.175651
v 0.620975 -0.972188 -0.103126
v 0.594429 -0.972188 -0.004054
v 0.620975 -0.972188 0.095017
v 0.693501 -0.972188 0.167543
v 0.792572 -0.972188 0.194089
v 0.891644 -0.972188 0.167543
v 0.964169 -0.972188 0.095017
v 0.990715 -0.972188 -0.004054
vn 0.9640 0.0632 0.2583
vn 0.7063 0.0463 0.7063
vn 0.2588 0.0170 0.9658
vn -0.2588 -0.0170 0.9658
vn -0.7063 -0.0463 0.7063
vn -0.9640 -0.0632 0.2583
vn -0.9640 -0.0632 -0.2583
vn -0.7063 -0.0463 -0.7063
vn -0.2588 -0.0170 -0.9658
vn 0.2588 0.0170 -0.9658
vn 0.7063 0.0463 -0.7063
vn 0.9640 0.0632 -0.2583
vn 0.9475 0.1885 0.2583
vn 0.6943 0.1381 0.7063
vn 0.2544 0.0506 0.9658
vn -0.2544 -0.0506 0.9658
vn -0.6943 -0.1381 0.7063
vn -0.9475 -0.1885 0.2583
vn -0.9475 -0.1885 -0.2583
vn -0.6943 -0.1381 -0.7063
vn -0.2544 -0.0506 -0.9658
vn 0.2544 0.0506 -0.9658
vn 0.6943 0.1381 -0.7063
vn 0.9475 0.1885 -0.2583
vn 0.9148 0.3105 0.2583
vn 0.6703 0.2275 0.7063
vn 0.2456 0.0834 0.9658
vn -0.2456 -0.0834 0.9658
vn -0.6703 -0.2275 0.7063
vn -0.9148 -0.3105 0.2583
vn -0.9148 -0.3105 -0.2583
vn -0.6703 -0.2275 -0.7063
vn -0.2456 -0.0834 -0.9658
vn 0.2456 0.0834 -0.9658
vn 0.6703 0.2275 -0.7063
vn 0.9148 0.3105 -0.2583
vn 0.8664 0.4273 0.2583
vn 0.6349 0.3131 0.7063
vn 0.2326 0.1147 0.9658
vn -0.2326 -0.1147 0.9658
vn -0.6349 -0.3131 0.7063
vn -0.8664 -0.4273 0.2583
vn -0.8664 -0.4273 -0.2583
vn -0.6349 -0.3131 -0.7063
vn -0.2326 -0.1147 -0.9658
vn 0.2326 0.1147 -0.9658
vn 0.6349 0.3131 -0.7063
vn 0.8664 0.4273 -0.2583
vn 0.8033 0.5367 0.2583
vn 0.5886 0.3933 0.7063
vn 0.2156 0.1441 0.9658
vn -0.2156 -0.1441 0.9658
vn -0.5886 -0.3933 0.7063
vn -0.8033 -0.5367 0.2583
vn -0.8033 -0.5367 -0.2583
vn -0.5886 -0.3933 -0.7063
vn -0.2156 -0.1441 -0.9658
vn 0.2156 0.1441 -0.9658
vn 0.5886 0.3933 -0.7063
vn 0.8033 0.5367 -0.2583
vn 0.7263 0.6370 0.2583
vn 0.5322 0.4667 0.7063
vn 0.1950 0.1710 0.9658
vn -0.1950 -0.1710 0.9658
vn -0.5322 -0.4667 0.7063
vn -0.7263 -0.6370 0.2583
vn -0.7263 -0.6370 -0.2583
vn -0.5322 -0.4667 -0.7063
vn -0.1950 -0.1710 -0.9658
vn 0.1950 0.1710 -0.9658
vn 0.5322 0.4667 -0.7063
vn 0.7263 0.6370 -0.2583
vn 0.6370 0.7263 0.2583
vn 0.4667 0.5322 0.7063
vn 0.1710 0.1950 0.9658
vn -0.1710 -0.1950 0.9658
vn -0.4667 -0.5322 0.7063
vn -0.6370 -0.7263 0.2583
vn -0.6370 -0.7263 -0.2583
vn -0.4667 -0.5322 -0.7063
vn -0.1710 -0.1950 -0.9658
vn 0.1710 0.1950 -0.9658
vn 0.4667 0.5322 -0.7063
vn 0.6370 0.7263 -0.2583
vn 0.5367 0.8033 0.2583
vn 0.3933 0.5886 0.7063
vn 0.1441 0.2156 0.9658
vn -0.1441 -0.2156 0.9658
vn -0.3933 -0.5886 0.7063
vn -0.5367 -0.8033 0.2583
vn -0.5367 -0.8033 -0.2583
vn -0.3933 -0.5886 -0.7063
vn -0.1441 -0.2156 -0.9658
vn 0.1441 0.2156 -0.9658
vn 0.3933 0.5886 -0.7063
vn 0.5367 0.8033 -0.2583
vn 0.4273 0.8664 0.2583
vn 0.3131 0.6349 0.7063
vn 0.1147 0.2326 0.9658
vn -0.1147 -0.2326 0.9658
vn -0.3131 -0.6349 0.7063
vn -0.4273 -0.8664 0.2583
vn -0.4273 -0.8664 -0.2583
vn -0.3131 -0.6349 -0.7063
vn -0.1147 -0.2326 -0.9658
vn 0.1147 0.2326 -0.9658
vn 0.3131 0.6349 -0.7063
vn 0.4273 0.8664 -0.2583
vn 0.3105 0.9148 0.2583
vn 0.2275 0.6703 0.7063
vn 0.0834 0.2456 0.9658
vn -0.0834 -0.2456 0.9658
vn -0.2275 -0.6703 0.7063
vn -0.3105 -0.9148 0.2583
vn -0.3105 -0.9148 -0.2583
vn -0.2275 -0.6703 -0.7063
vn -0.0834 -0.2456 -0.9658
vn 0.0834 0.2456 -0.9658
vn 0.2275 0.6703 -0.7063
vn 0.3105 0.9148 -0.2583
vn 0.1885 0.9475 0.2583
vn 0.1381 0.6943 0.7063
vn 0.0506 0.2544 0.9658
vn -0.0506 -0.2544 0.9658
vn -0.1381 -0.6943 0.7063
vn -0.1885 -0.9475 0.2583
vn -0.1885 -0.9475 -0.2583
vn -0.1381 -0.6943 -0.7063
vn -0.0506 -0.2544 -0.9658
vn 0.0506 0.2544 -0.9658
vn 0.1381 0.6943 -0.7063
vn 0.1885 0.9475 -0.2583
vn 0.0632 0.9640 0.2583
vn 0.0463 0.7063 0.7063
vn 0.0170 0.2588 0.9658
vn -0.0170 -0.2588 0.9658
vn -0.0463 -0.7063 0.7063
vn -0.0632 -0.9640 0.2583
vn -0.0632 -0.9640 -0.2583
vn -0.0463 -0.7063 -0.7063
vn -0.0170 -0.2588 -0.9658
vn 0.0170 0.2588 -0.9658
vn 0.0463 0.7063 -0.7063
vn 0.0632 0.9640 -0.2583
vn -0.0632 0.9640 0.2583
vn -0.0463 0.7063 0.7063
vn -0.0170 0.2588 0.9658
vn 0.0170 -0.2588 0.9658
vn 0.0463 -0.7063 0.7063
vn 0.0632 -0.9640 0.2583
vn 0.0632 -0.9640 -0.2583
vn 0.0463 -0.7063 -0.7063
vn 0.0170 -0.2588 -0.9658
vn -0.0170 0.2588 -0.9658
vn -0.0463 0.7063 -0.7063
vn -0.0632 0.9640 -0.2583
vn -0.1885 0.9475 0.2583
vn -0.1381 0.6943 0.7063
vn -0.0506 0.2544 0.9658
vn 0.0506 -0.2544 0.9658
vn 0.1381 -0.6943 0.7063
vn 0.1885 -0.9475 0.2583
vn 0.1885 -0.9475 -0.2583
vn 0.1381 -0.6943 -0.7063
vn 0.0506 -0.2544 -0.9658
vn -0.0506 0.2544 -0.9658
vn -0.1381 0.6943 -0.7063
vn -0.1885 0.9475 -0.2583
vn -0.3105 0.9148 0.2583
vn -0.2275 0.6703 0.7063
vn -0.0834 0.2456 0.9658
vn 0.0834 -0.2456 0.9658
vn 0.2275 -0.6703 0.7063
vn 0.3105 -0.9148 0.2583
vn 0.3105 -0.9148 -0.2583
vn 0.2275 -0.6703 -0.7063
vn 0.0834 -0.2456 -0.9658
vn -0.0834 0.2456 -0.9658
vn -0.2275 0.6703 -0.7063
vn -0.3105 0.9148 -0.2583
vn -0.4273 0.8664 0.2583
vn -0.3131 0.6349 0.7063
vn -0.1147 0.2326 0.9658
vn 0.1147 -0.2326 0.9658
vn 0.3131 -0.6349 0.7063
vn 0.4273 -0.8664 0.2583
vn 0.4273 -0.8664 -0.2583
vn 0.3131 -0.6349 -0.7063
vn 0.1147 -0.2326 -0.9658
vn -0.1147 0.2326 -0.9658
vn -0.3131 0.6349 -0.7063
vn -0.4273 0.8664 -0.2583
vn -0.5367 0.8033 0.2583
vn -0.3933 0.5886 0.7063
vn -0.1441 0.2156 0.9658
vn 0.1441 -0.2156 0.9658
vn 0.3933 -0.5886 0.7063
vn 0.5367 -0.8033 0.2583
vn 0.5367 -0.8033 -0.2583
vn 0.3933 -0.5886 -0.7063
vn 0.1441 -0.2156 -0.9658
vn -0.1441 0.2156 -0.9658
vn -0.3933 0.5886 -0.7063
vn -0.5367 0.8033 -0.2583
vn -0.6370 0.7263 0.2583
vn -0.4667 0.5322 0.7063
vn -0.1710 0.1950 0.9658
vn 0.1710 -0.1950 0.9658
vn 0.4667 -0.5322 0.7063
vn 0.6370 -0.7263 0.2583
vn 0.6370 -0.7263 -0.2583
vn 0.4667 -0.5322 -0.7063
vn 0.1710 -0.1950 -0.9658
vn -0.1710 0.1950 -0.9658
vn -0.4667 0.5322 -0.7063
vn -0.6370 0.7263 -0.2583
vn -0.7263 0.6370 0.2583
vn -0.5322 0.4667 0.7063
vn -0.1950 0.1710 0.9658
vn 0.1950 -0.1710 0.9658
vn 0.5322 -0.4667 0.7063
vn 0.7263 -0.6370 0.2583
vn 0.7263 -0.6370 -0.2583
vn 0.5322 -0.4667 -0.7063
vn 0.1950 -0.1710 -0.9658
vn -0.1950 0.1710 -0.9658
vn -0.5322 0.4667 -0.7063
vn -0.7263 0.6370 -0.2583
vn -0.8033 0.5367 0.2583
vn -0.5886 0.3933 0.7063
vn -0.2156 0.1441 0.9658
vn 0.2156 -0.1441 0.9658
vn 0.5886 -0.3933 0.7063
vn 0.8033 -0.5367 0.2583
vn 0.8033 -0.5367 -0.2583
vn 0.5886 -0.3933 -0.7063
vn 0.2156 -0.1441 -0.9658
vn -0.2156 0.1441 -0.9658
vn -0.5886 0.3933 -0.7063
vn -0.8033 0.5367 -0.2583
vn -0.8664 0.4273 0.2583
vn -0.6349 0.3131 0.7063
vn -0.2326 0.1147 0.9658
vn 0.2326 -0.1147 0.9658
vn 0.6349 -0.3131 0.7063
vn 0.8664 -0.4273 0.2583
vn 0.8664 -0.4273 -0.2583
vn 0.6349 -0.3131 -0.7063
vn 0.2326 -0.1147 -0.9658
vn -0.2326 0.1147 -0.9658
vn -0.6349 0.3131 -0.7063
vn -0.8664 0.4273 -0.2583
vn -0.9148 0.3105 0.2583
vn -0.6703 0.2275 0.7063
vn -0.2456 0.0834 0.9658
vn 0.2456 -0.0834 0.9658
vn 0.6703 -0.2275 0.7063
vn 0.9148 -0.3105 0.2583
vn 0.9148 -0.3105 -0.2583
vn 0.6703 -0.2275 -0.7063
vn 0.2456 -0.0834 -0.9658
vn -0.2456 0.0834 -0.9658
vn -0.6703 0.2275 -0.7063
vn -0.9148 0.3105 -0.2583
vn -0.9475 0.1885 0.2583
vn -0.6943 0.1381 0.7063
vn -0.2544 0.0506 0.9658
vn 0.2544 -0.0506 0.9658
vn 0.6943 -0.1381 0.7063
vn 0.9475 -0.1885 0.2583
vn 0.9475 -0.1885 -0.2583
vn 0.6943 -0.1381 -0.7063
vn 0.2544 -0.0506 -0.9658
vn -0.2544 0.0506 -0.9658
vn -0.6943 0.1381 -0.7063
vn -0.9475 0.1885 -0.2583
vn -0.9640 0.0632 0.2583
vn -0.7063 0.0463 0.7063
vn -0.2588 0.0170 0.9658
vn 0.2588 -0.0170 0.9658
vn 0.7063 -0.0463 0.7063
vn 0.9640 -0.0632 0.2583
vn 0.9640 -0.0632 -0.2583
vn 0.7063 -0.0463 -0.7063
vn 0.2588 -0.0170 -0.9658
vn -0.2588 0.0170 -0.9658
vn -0.7063 0.0463 -0.7063
vn -0.9640 0.0632 -0.2583
vn 0.9659 -0.0011 0.2588
vn 0.2588 0.0040 -0.9659
vn 0.7071 -0.0029 0.7071
vn -0.7071 0.0029 -0.7071
vn -0.9659 -0.0011 0.2588
vn -0.2588 -0.0040 0.9659
vn -0.9659 0.0011 -0.2588
vn 0.7071 0.0029 -0.7071
vn 0.2588 -0.0040 0.9659
vn 0.9659 0.0011 -0.2588
vn -0.2588 0.0040 -0.9659
vn -0.7071 -0.0029 0.7071
vn -0.0000 -1.0000 -0.0000
vn -0.0000 -0.0000 -1.0000
vn -0.0000 0.0042 -1.0000
vt 0.195633 0.455252
vt 0.221883 0.483074
vt 0.197598 0.485105
vt 0.219646 0.453558
vt 0.246922 0.480840
vt 0.244463 0.451853
vt 0.273750 0.478538
vt 0.271670 0.450182
vt 0.302725 0.476862
vt 0.336003 0.448930
vt 0.334878 0.477312
vt 0.371552 0.481527
vt 0.004644 0.475025
vt 0.057360 0.499276
vt 0.011523 0.511502
vt 0.050202 0.467648
vt 0.091452 0.492183
vt 0.118780 0.459834
vt 0.120909 0.488898
vt 0.146421 0.458071
vt 0.147905 0.487435
vt 0.171683 0.456624
vt 0.173158 0.486312
vt 0.217606 0.424158
vt 0.242689 0.422651
vt 0.269970 0.421224
vt 0.301282 0.419808
vt 0.302054 0.448723
vt 0.336610 0.419080
vt 0.374673 0.451229
vt 0.045713 0.435137
vt 0.087348 0.462664
vt 0.084345 0.431946
vt 0.116704 0.429883
vt 0.144707 0.428350
vt 0.170174 0.427024
vt 0.192366 0.396123
vt 0.193927 0.425633
vt 0.216011 0.394782
vt 0.268482 0.391867
vt 0.299632 0.390294
vt 0.336149 0.388651
vt 0.376329 0.419777
vt 0.001613 0.438701
vt 0.044132 0.402313
vt 0.082262 0.400741
vt 0.115134 0.399562
vt 0.168534 0.397344
vt 0.191066 0.366789
vt 0.214467 0.365512
vt 0.240936 0.393341
vt 0.239189 0.364089
vt 0.298344 0.360365
vt 0.334227 0.357990
vt 0.374769 0.355412
vt 0.376348 0.387641
vt 0.000090 0.369007
vt 0.000090 0.403573
vt 0.043295 0.369595
vt 0.081441 0.369564
vt 0.142238 0.368595
vt 0.143431 0.398476
vt 0.167475 0.367764
vt 0.189653 0.337661
vt 0.212912 0.336477
vt 0.237388 0.335006
vt 0.266542 0.362486
vt 0.264526 0.333185
vt 0.295716 0.330747
vt 0.371903 0.323332
vt 0.001551 0.334962
vt 0.081485 0.338640
vt 0.114018 0.339064
vt 0.114197 0.369203
vt 0.141778 0.338997
vt 0.166354 0.338481
vt 0.211430 0.307862
vt 0.262187 0.304263
vt 0.292703 0.301313
vt 0.331949 0.327334
vt 0.367740 0.291833
vt 0.005030 0.301915
vt 0.043835 0.337376
vt 0.082861 0.308259
vt 0.114152 0.309443
vt 0.141472 0.309882
vt 0.165798 0.309658
vt 0.188656 0.308976
vt 0.209926 0.279861
vt 0.235476 0.306326
vt 0.233409 0.278243
vt 0.289529 0.272413
vt 0.324333 0.267390
vt 0.328226 0.297147
vt 0.362923 0.260697
vt 0.008981 0.269948
vt 0.046232 0.305851
vt 0.048984 0.275108
vt 0.084558 0.278591
vt 0.141628 0.281398
vt 0.165504 0.281454
vt 0.187785 0.280966
vt 0.208302 0.252648
vt 0.256424 0.248254
vt 0.259146 0.275944
vt 0.285393 0.244341
vt 0.319054 0.238554
vt 0.052686 0.245407
vt 0.087038 0.249864
vt 0.115157 0.280553
vt 0.116678 0.252493
vt 0.165176 0.254067
vt 0.186764 0.253697
vt 0.206793 0.226343
vt 0.230908 0.250944
vt 0.252927 0.221686
vt 0.280592 0.217254
vt 0.313084 0.210759
vt 0.356358 0.230558
vt 0.014331 0.239024
vt 0.057246 0.216906
vt 0.090196 0.222226
vt 0.118623 0.225463
vt 0.142406 0.253760
vt 0.165353 0.227635
vt 0.185315 0.202134
vt 0.186116 0.227324
vt 0.225896 0.199301
vt 0.228454 0.224570
vt 0.275814 0.191253
vt 0.306490 0.184113
vt 0.340609 0.173981
vt 0.348775 0.201682
vt 0.027699 0.180962
vt 0.020688 0.209379
vt 0.062593 0.189679
vt 0.093998 0.195795
vt 0.120966 0.199588
vt 0.143324 0.227100
vt 0.144622 0.201575
vt 0.165685 0.202356
vt 0.184771 0.178288
vt 0.204984 0.201191
vt 0.203408 0.177270
vt 0.222958 0.175305
vt 0.248974 0.196224
vt 0.244937 0.172000
vt 0.269954 0.166682
vt 0.331512 0.147651
vt 0.035794 0.153944
vt 0.098483 0.170714
vt 0.124192 0.175058
vt 0.146209 0.177343
vt 0.165971 0.178313
vt 0.201507 0.154805
vt 0.220027 0.152739
vt 0.240373 0.149245
vt 0.264209 0.143457
vt 0.299183 0.158822
vt 0.291224 0.134987
vt 0.045000 0.128613
vt 0.068660 0.163842
vt 0.103253 0.147172
vt 0.127359 0.151939
vt 0.148137 0.154557
vt 0.166733 0.155702
vt 0.183568 0.134843
vt 0.184139 0.155835
vt 0.199809 0.133858
vt 0.216825 0.131717
vt 0.235632 0.128028
vt 0.282533 0.112872
vt 0.321549 0.122831
vt 0.054956 0.105117
vt 0.075954 0.139647
vt 0.083543 0.117015
vt 0.131175 0.130505
vt 0.150226 0.133370
vt 0.167359 0.134682
vt 0.197861 0.114556
vt 0.213498 0.112388
vt 0.230957 0.108483
vt 0.250769 0.102274
vt 0.257669 0.122016
vt 0.273696 0.092501
vt 0.310551 0.099913
vt 0.091659 0.096337
vt 0.109175 0.125391
vt 0.114996 0.105208
vt 0.135132 0.110742
vt 0.152576 0.113861
vt 0.168391 0.115314
vt 0.182740 0.097935
vt 0.183186 0.115530
vt 0.196106 0.097011
vt 0.225780 0.090840
vt 0.243687 0.084382
vt 0.263989 0.074323
vt 0.298924 0.078887
vt 0.065940 0.083689
vt 0.100243 0.077656
vt 0.121261 0.086953
vt 0.139410 0.092789
vt 0.169341 0.097665
vt 0.182345 0.082125
vt 0.194187 0.081276
vt 0.210096 0.094807
vt 0.206769 0.079054
vt 0.220547 0.075071
vt 0.236281 0.068513
vt 0.273846 0.043422
vt 0.286633 0.060035
vt 0.089459 0.047209
vt 0.077333 0.064296
vt 0.127676 0.070699
vt 0.157921 0.080195
vt 0.155249 0.096111
vt 0.170548 0.081852
vt 0.182079 0.068224
vt 0.192438 0.067377
vt 0.203326 0.065200
vt 0.215273 0.061250
vt 0.244170 0.044294
vt 0.254318 0.058094
vt 0.260640 0.029340
vt 0.101970 0.032587
vt 0.109590 0.061215
vt 0.118930 0.046825
vt 0.134700 0.056661
vt 0.143856 0.076756
vt 0.160659 0.066173
vt 0.171678 0.067887
vt 0.181850 0.056158
vt 0.199992 0.053262
vt 0.210035 0.049429
vt 0.228861 0.054672
vt 0.221497 0.042981
vt 0.234003 0.032794
vt 0.128665 0.034961
vt 0.141627 0.044648
vt 0.153178 0.050597
vt 0.148626 0.062708
vt 0.163553 0.054081
vt 0.181605 0.045877
vt 0.190739 0.055351
vt 0.196803 0.043194
vt 0.205157 0.039513
vt 0.214238 0.033432
vt 0.224267 0.023490
vt 0.247349 0.017870
vt 0.127553 0.011392
vt 0.114738 0.020568
vt 0.137991 0.025259
vt 0.148270 0.034662
vt 0.157739 0.040480
vt 0.166321 0.043825
vt 0.172875 0.055776
vt 0.174155 0.045460
vt 0.187496 0.036676
vt 0.188999 0.045156
vt 0.200471 0.031524
vt 0.207603 0.025811
vt 0.214814 0.016749
vt 0.234163 0.009053
vt 0.146984 0.017946
vt 0.154662 0.026758
vt 0.162089 0.032213
vt 0.168996 0.035344
vt 0.175370 0.036894
vt 0.181363 0.030294
vt 0.181436 0.037280
vt 0.186161 0.029771
vt 0.193738 0.034897
vt 0.196173 0.025314
vt 0.201370 0.020336
vt 0.206119 0.012351
vt 0.221347 0.003146
vt 0.139817 0.004847
vt 0.155337 0.012908
vt 0.160595 0.020793
vt 0.166106 0.025680
vt 0.171505 0.028503
vt 0.176527 0.029912
vt 0.184965 0.024298
vt 0.191058 0.028236
vt 0.188714 0.023037
vt 0.196043 0.016461
vt 0.198708 0.009888
vt 0.209453 0.000182
vt 0.161558 0.000271
vt 0.151363 0.001134
vt 0.162716 0.009938
vt 0.165888 0.016556
vt 0.173695 0.023122
vt 0.177566 0.024352
vt 0.181274 0.024689
vt 0.184052 0.020018
vt 0.186803 0.019070
vt 0.192495 0.020599
vt 0.189441 0.017208
vt 0.192719 0.009257
vt 0.199082 0.000090
vt 0.168940 0.008780
vt 0.172811 0.017047
vt 0.169806 0.020732
vt 0.175635 0.019003
vt 0.178442 0.019999
vt 0.181279 0.016702
vt 0.181263 0.020281
vt 0.183398 0.016710
vt 0.185368 0.016091
vt 0.188237 0.012563
vt 0.191589 0.014081
vt 0.186750 0.006786
vt 0.191160 0.002677
vt 0.173947 0.005148
vt 0.169476 0.001978
vt 0.173875 0.008446
vt 0.170403 0.013797
vt 0.174021 0.011888
vt 0.175295 0.014343
vt 0.179148 0.016624
vt 0.219912 0.652368
vt 0.177887 0.009210
vt 0.186001 0.008125
vt 0.188171 0.009551
vt 0.154734 0.737867
vt 0.182572 0.010400
vt 0.244901 0.667736
vt 0.181604 0.010537
vt 0.176768 0.007813
vt 0.199110 0.654968
vt 0.184733 0.009261
vt 0.187089 0.014763
vt 0.212267 0.999910
vt 0.177108 0.015879
vt 0.180701 0.010549
vt 0.178640 0.003637
vt 0.189060 0.663529
vt 0.266681 0.734578
vt 0.230475 0.660216
vt 0.179832 0.010378
vt 0.185439 0.007300
vt 0.163607 0.691623
vt 0.183533 0.010049
vt 0.256369 0.686357
vt 0.209204 0.651260
vt 0.619602 0.091732
vt 0.380740 0.091732
vt 0.468170 0.004303
vt 0.178919 0.009991
vt 0.176548 0.672806
vt 0.622757 0.107595
vt 0.623815 0.123734
vt 0.376527 0.123734
vt 0.623815 0.325955
vt 0.376527 0.325955
vt 0.377585 0.107595
vt 0.385939 0.076417
vt 0.412742 0.036304
vt 0.393092 0.061912
vt 0.402078 0.048464
vt 0.424901 0.025640
vt 0.438349 0.016655
vt 0.452855 0.009502
vt 0.484032 0.001148
vt 0.500171 0.000090
vt 0.516310 0.001148
vt 0.532172 0.004303
vt 0.547488 0.009502
vt 0.587601 0.036304
vt 0.561993 0.016655
vt 0.575441 0.025640
vt 0.598264 0.048464
vt 0.607250 0.061912
vt 0.614403 0.076417
s 0
usemtl マテリアル
f 13/1/1 2/2/1 1/3/1
f 14/4/2 3/5/2 2/2/2
f 15/6/3 4/7/3 3/5/3
f 16/8/4 5/9/4 4/7/4
f 5/9/5 18/10/5 6/11/5
f 18/10/6 7/12/6 6/11/6
f 19/13/7 8/14/7 7/15/7
f 20/16/8 9/17/8 8/14/8
f 9/17/9 22/18/9 10/19/9
f 10/19/10 23/20/10 11/21/10
f 11/21/11 24/22/11 12/23/11
f 12/23/12 13/1/12 1/3/12
f 13/1/13 26/24/13 14/4/13
f 14/4/14 27/25/14 15/6/14
f 15/6/15 28/26/15 16/8/15
f 16/8/16 29/27/16 17/28/16
f 17/28/17 30/29/17 18/10/17
f 30/29/18 19/30/18 18/10/18
f 19/13/19 32/31/19 20/16/19
f 32/31/20 21/32/20 20/16/20
f 33/33/21 22/18/21 21/32/21
f 34/34/22 23/20/22 22/18/22
f 35/35/23 24/22/23 23/20/23
f 36/36/24 13/1/24 24/22/24
f 37/37/25 26/24/25 25/38/25
f 38/39/26 27/25/26 26/24/26
f 27/25/27 40/40/27 28/26/27
f 40/40/28 29/27/28 28/26/28
f 41/41/29 30/29/29 29/27/29
f 42/42/30 31/43/30 30/29/30
f 31/44/31 44/45/31 32/31/31
f 32/31/32 45/46/32 33/33/32
f 33/33/33 46/47/33 34/34/33
f 46/47/34 35/35/34 34/34/34
f 35/35/35 48/48/35 36/36/35
f 48/48/36 25/38/36 36/36/36
f 49/49/37 38/39/37 37/37/37
f 50/50/38 39/51/38 38/39/38
f 51/52/39 40/40/39 39/51/39
f 40/40/40 53/53/40 41/41/40
f 41/41/41 54/54/41 42/42/41
f 42/42/42 55/55/42 43/56/42
f 55/57/43 44/45/43 43/58/43
f 56/59/44 45/46/44 44/45/44
f 57/60/45 46/47/45 45/46/45
f 46/47/46 59/61/46 47/62/46
f 59/61/47 48/48/47 47/62/47
f 60/63/48 37/37/48 48/48/48
f 61/64/49 50/50/49 49/49/49
f 62/65/50 51/52/50 50/50/50
f 63/66/51 52/67/51 51/52/51
f 64/68/52 53/53/52 52/67/52
f 65/69/53 54/54/53 53/53/53
f 54/54/54 67/70/54 55/55/54
f 67/71/55 56/59/55 55/57/55
f 56/59/56 69/72/56 57/60/56
f 57/60/57 70/73/57 58/74/57
f 58/74/58 71/75/58 59/61/58
f 59/61/59 72/76/59 60/63/59
f 60/63/60 61/64/60 49/49/60
f 61/64/61 74/77/61 62/65/61
f 74/77/62 63/66/62 62/65/62
f 63/66/63 76/78/63 64/68/63
f 76/78/64 65/69/64 64/68/64
f 77/79/65 66/80/65 65/69/65
f 66/80/66 79/81/66 67/70/66
f 79/82/67 68/83/67 67/71/67
f 68/83/68 81/84/68 69/72/68
f 69/72/69 82/85/69 70/73/69
f 82/85/70 71/75/70 70/73/70
f 83/86/71 72/76/71 71/75/71
f 84/87/72 61/64/72 72/76/72
f 73/88/73 86/89/73 74/77/73
f 86/89/74 75/90/74 74/77/74
f 87/91/75 76/78/75 75/90/75
f 76/78/76 89/92/76 77/79/76
f 77/79/77 90/93/77 78/94/77
f 78/94/78 91/95/78 79/81/78
f 91/96/79 80/97/79 79/82/79
f 92/98/80 81/84/80 80/97/80
f 93/99/81 82/85/81 81/84/81
f 82/85/82 95/100/82 83/86/82
f 83/86/83 96/101/83 84/87/83
f 96/101/84 73/88/84 84/87/84
f 85/102/85 98/103/85 86/89/85
f 98/103/86 87/91/86 86/89/86
f 87/91/87 100/104/87 88/105/87
f 100/104/88 89/92/88 88/105/88
f 101/106/89 90/93/89 89/92/89
f 102/107/90 91/95/90 90/93/90
f 91/96/91 104/108/91 92/98/91
f 92/98/92 105/109/92 93/99/92
f 105/109/93 94/110/93 93/99/93
f 106/111/94 95/100/94 94/110/94
f 95/100/95 108/112/95 96/101/95
f 108/112/96 85/102/96 96/101/96
f 97/113/97 110/114/97 98/103/97
f 110/114/98 99/115/98 98/103/98
f 99/115/99 112/116/99 100/104/99
f 100/104/100 113/117/100 101/106/100
f 113/117/101 102/107/101 101/106/101
f 114/118/102 103/119/102 102/107/102
f 103/120/103 116/121/103 104/108/103
f 116/121/104 105/109/104 104/108/104
f 117/122/105 106/111/105 105/109/105
f 118/123/106 107/124/106 106/111/106
f 107/124/107 120/125/107 108/112/107
f 120/125/108 97/113/108 108/112/108
f 121/126/109 110/114/109 109/127/109
f 110/114/110 123/128/110 111/129/110
f 123/128/111 112/116/111 111/129/111
f 112/116/112 125/130/112 113/117/112
f 113/117/113 126/131/113 114/118/113
f 114/118/114 127/132/114 115/133/114
f 127/134/115 116/121/115 115/135/115
f 128/136/116 117/122/116 116/121/116
f 129/137/117 118/123/117 117/122/117
f 130/138/118 119/139/118 118/123/118
f 131/140/119 120/125/119 119/139/119
f 132/141/120 109/127/120 120/125/120
f 133/142/121 122/143/121 121/126/121
f 134/144/122 123/128/122 122/143/122
f 135/145/123 124/146/123 123/128/123
f 136/147/124 125/130/124 124/146/124
f 137/148/125 126/131/125 125/130/125
f 126/131/126 139/149/126 127/132/126
f 139/150/127 128/136/127 127/134/127
f 128/136/128 141/151/128 129/137/128
f 129/137/129 142/152/129 130/138/129
f 130/138/130 143/153/130 131/140/130
f 131/140/131 144/154/131 132/141/131
f 132/141/132 133/142/132 121/126/132
f 133/142/133 146/155/133 134/144/133
f 134/144/134 147/156/134 135/145/134
f 135/145/135 148/157/135 136/147/135
f 148/157/136 137/148/136 136/147/136
f 149/158/137 138/159/137 137/148/137
f 150/160/138 139/149/138 138/159/138
f 151/161/139 140/162/139 139/150/139
f 140/162/140 153/163/140 141/151/140
f 153/163/141 142/152/141 141/151/141
f 154/164/142 143/153/142 142/152/142
f 155/165/143 144/154/143 143/153/143
f 156/166/144 133/142/144 144/154/144
f 157/167/145 146/155/145 145/168/145
f 158/169/146 147/156/146 146/155/146
f 159/170/147 148/157/147 147/156/147
f 160/171/148 149/158/148 148/157/148
f 149/158/149 162/172/149 150/160/149
f 162/172/150 151/173/150 150/160/150
f 163/174/151 152/175/151 151/161/151
f 164/176/152 153/163/152 152/175/152
f 153/163/153 166/177/153 154/164/153
f 154/164/154 167/178/154 155/165/154
f 155/165/155 168/179/155 156/166/155
f 156/166/156 157/167/156 145/168/156
f 157/167/157 170/180/157 158/169/157
f 158/169/158 171/181/158 159/170/158
f 159/170/159 172/182/159 160/171/159
f 160/171/160 173/183/160 161/184/160
f 161/184/161 174/185/161 162/172/161
f 174/185/162 163/186/162 162/172/162
f 163/174/163 176/187/163 164/176/163
f 176/187/164 165/188/164 164/176/164
f 177/189/165 166/177/165 165/188/165
f 178/190/166 167/178/166 166/177/166
f 179/191/167 168/179/167 167/178/167
f 180/192/168 157/167/168 168/179/168
f 181/193/169 170/180/169 169/194/169
f 182/195/170 171/181/170 170/180/170
f 171/181/171 184/196/171 172/182/171
f 184/196/172 173/183/172 172/182/172
f 185/197/173 174/185/173 173/183/173
f 186/198/174 175/199/174 174/185/174
f 175/200/175 188/201/175 176/187/175
f 176/187/176 189/202/176 177/189/176
f 177/189/177 190/203/177 178/190/177
f 190/203/178 179/191/178 178/190/178
f 179/191/179 192/204/179 180/192/179
f 192/204/180 169/194/180 180/192/180
f 193/205/181 182/195/181 181/193/181
f 194/206/182 183/207/182 182/195/182
f 195/208/183 184/196/183 183/207/183
f 196/209/184 185/197/184 184/196/184
f 197/210/185 186/198/185 185/197/185
f 186/198/186 199/211/186 187/212/186
f 199/213/187 188/201/187 187/214/187
f 188/201/188 201/215/188 189/202/188
f 201/215/189 190/203/189 189/202/189
f 190/203/190 203/216/190 191/217/190
f 191/217/191 204/218/191 192/204/191
f 192/204/192 193/205/192 181/193/192
f 205/219/193 194/206/193 193/205/193
f 206/220/194 195/208/194 194/206/194
f 207/221/195 196/209/195 195/208/195
f 208/222/196 197/210/196 196/209/196
f 197/210/197 210/223/197 198/224/197
f 198/224/198 211/225/198 199/211/198
f 211/226/199 200/227/199 199/213/199
f 212/228/200 201/215/200 200/227/200
f 213/229/201 202/230/201 201/215/201
f 202/230/202 215/231/202 203/216/202
f 203/216/203 216/232/203 204/218/203
f 204/218/204 205/219/204 193/205/204
f 217/233/205 206/220/205 205/219/205
f 206/220/206 219/234/206 207/221/206
f 207/221/207 220/235/207 208/222/207
f 220/235/208 209/236/208 208/222/208
f 221/237/209 210/223/209 209/236/209
f 222/238/210 211/225/210 210/223/210
f 211/226/211 224/239/211 212/228/211
f 212/228/212 225/240/212 213/229/212
f 213/229/213 226/241/213 214/242/213
f 226/241/214 215/231/214 214/242/214
f 227/243/215 216/232/215 215/231/215
f 216/232/216 217/233/216 205/219/216
f 229/244/217 218/245/217 217/233/217
f 218/245/218 231/246/218 219/234/218
f 219/234/219 232/247/219 220/235/219
f 220/235/220 233/248/220 221/237/220
f 221/237/221 234/249/221 222/238/221
f 234/249/222 223/250/222 222/238/222
f 235/251/223 224/239/223 223/252/223
f 236/253/224 225/240/224 224/239/224
f 237/254/225 226/241/225 225/240/225
f 238/255/226 227/243/226 226/241/226
f 239/256/227 228/257/227 227/243/227
f 240/258/228 217/233/228 228/257/228
f 229/244/229 242/259/229 230/260/229
f 242/259/230 231/246/230 230/260/230
f 231/246/231 244/261/231 232/247/231
f 232/247/232 245/262/232 233/248/232
f 233/248/233 246/263/233 234/249/233
f 246/263/234 235/264/234 234/249/234
f 235/251/235 248/265/235 236/253/235
f 248/265/236 237/254/236 236/253/236
f 249/266/237 238/255/237 237/254/237
f 250/267/238 239/256/238 238/255/238
f 251/268/239 240/258/239 239/256/239
f 252/269/240 229/244/240 240/258/240
f 253/270/241 242/259/241 241/271/241
f 254/272/242 243/273/242 242/259/242
f 243/273/243 256/274/243 244/261/243
f 256/274/244 245/262/244 244/261/244
f 257/275/245 246/263/245 245/262/245
f 258/276/246 247/277/246 246/263/246
f 247/278/247 260/279/247 248/265/247
f 248/265/248 261/280/248 249/266/248
f 249/266/249 262/281/249 250/267/249
f 262/281/250 251/268/250 250/267/250
f 263/282/251 252/269/251 251/268/251
f 264/283/252 241/271/252 252/269/252
f 253/270/253 266/284/253 254/272/253
f 266/284/254 255/285/254 254/272/254
f 267/286/255 256/274/255 255/285/255
f 256/274/256 269/287/256 257/275/256
f 257/275/257 270/288/257 258/276/257
f 270/288/258 259/289/258 258/276/258
f 271/290/259 260/279/259 259/291/259
f 272/292/260 261/280/260 260/279/260
f 273/293/261 262/281/261 261/280/261
f 262/281/262 275/294/262 263/282/262
f 263/282/263 276/295/263 264/283/263
f 276/295/264 253/270/264 264/283/264
f 265/296/265 278/297/265 266/284/265
f 278/297/266 267/286/266 266/284/266
f 279/298/267 268/299/267 267/286/267
f 280/300/268 269/287/268 268/299/268
f 269/287/269 282/301/269 270/288/269
f 282/301/270 271/302/270 270/288/270
f 271/290/271 284/303/271 272/292/271
f 284/303/272 273/293/272 272/292/272
f 273/293/273 286/304/273 274/305/273
f 286/304/274 275/294/274 274/305/274
f 287/306/275 276/295/275 275/294/275
f 288/307/276 265/296/276 276/295/276
f 289/308/277 278/297/277 277/309/277
f 290/310/278 279/298/278 278/297/278
f 291/311/279 280/300/279 279/298/279
f 280/300/280 293/312/280 281/313/280
f 293/312/281 282/301/281 281/313/281
f 282/301/282 295/314/282 283/315/282
f 295/316/283 284/303/283 283/317/283
f 296/318/284 285/319/284 284/303/284
f 297/320/285 286/304/285 285/319/285
f 298/321/286 287/306/286 286/304/286
f 287/306/287 300/322/287 288/307/287
f 300/322/288 277/309/288 288/307/288
f 323/323/289 1/3/289 2/2/289
f 304/324/290 298/321/290 297/320/290
f 308/325/291 294/326/291 293/312/291
f 9/17/292 317/327/292 8/14/292
f 289/308/293 311/328/293 290/310/293
f 5/9/294 321/329/294 4/7/294
f 300/322/295 312/330/295 289/308/295
f 305/331/296 297/320/296 296/318/296
f 313/332/296 11/21/296 12/23/296
f 309/333/297 293/312/297 292/334/297
f 8/14/295 318/335/295 7/15/295
f 321/329/297 3/5/297 4/7/297
f 299/336/292 301/337/292 300/322/292
f 306/338/298 296/318/298 295/316/298
f 314/339/290 10/19/290 11/21/290
f 291/311/294 309/333/294 292/334/294
f 7/12/293 319/340/293 6/11/293
f 322/341/291 2/2/291 3/5/291
f 298/321/299 302/342/299 299/336/299
f 307/343/289 295/314/289 294/326/289
f 10/19/299 316/344/299 9/17/299
f 290/310/300 310/345/300 291/311/300
f 6/11/300 320/346/300 5/9/300
f 322/341/301 318/335/301 314/339/301
f 304/324/301 308/325/301 312/330/301
f 324/347/298 12/23/298 1/3/298
f 31/348/302 271/349/302 175/350/302
f 13/1/1 14/4/1 2/2/1
f 14/4/2 15/6/2 3/5/2
f 15/6/3 16/8/3 4/7/3
f 16/8/4 17/28/4 5/9/4
f 5/9/5 17/28/5 18/10/5
f 18/10/6 19/30/6 7/12/6
f 19/13/7 20/16/7 8/14/7
f 20/16/8 21/32/8 9/17/8
f 9/17/9 21/32/9 22/18/9
f 10/19/10 22/18/10 23/20/10
f 11/21/11 23/20/11 24/22/11
f 12/23/12 24/22/12 13/1/12
f 13/1/13 25/38/13 26/24/13
f 14/4/14 26/24/14 27/25/14
f 15/6/15 27/25/15 28/26/15
f 16/8/16 28/26/16 29/27/16
f 17/28/17 29/27/17 30/29/17
f 30/29/18 31/43/18 19/30/18
f 19/13/19 31/44/19 32/31/19
f 32/31/20 33/33/20 21/32/20
f 33/33/21 34/34/21 22/18/21
f 34/34/22 35/35/22 23/20/22
f 35/35/23 36/36/23 24/22/23
f 36/36/24 25/38/24 13/1/24
f 37/37/25 38/39/25 26/24/25
f 38/39/26 39/51/26 27/25/26
f 27/25/27 39/51/27 40/40/27
f 40/40/28 41/41/28 29/27/28
f 41/41/29 42/42/29 30/29/29
f 42/42/30 43/56/30 31/43/30
f 31/44/31 43/58/31 44/45/31
f 32/31/32 44/45/32 45/46/32
f 33/33/33 45/46/33 46/47/33
f 46/47/34 47/62/34 35/35/34
f 35/35/35 47/62/35 48/48/35
f 48/48/36 37/37/36 25/38/36
f 49/49/37 50/50/37 38/39/37
f 50/50/38 51/52/38 39/51/38
f 51/52/39 52/67/39 40/40/39
f 40/40/40 52/67/40 53/53/40
f 41/41/41 53/53/41 54/54/41
f 42/42/42 54/54/42 55/55/42
f 55/57/43 56/59/43 44/45/43
f 56/59/44 57/60/44 45/46/44
f 57/60/45 58/74/45 46/47/45
f 46/47/46 58/74/46 59/61/46
f 59/61/47 60/63/47 48/48/47
f 60/63/48 49/49/48 37/37/48
f 61/64/49 62/65/49 50/50/49
f 62/65/50 63/66/50 51/52/50
f 63/66/51 64/68/51 52/67/51
f 64/68/52 65/69/52 53/53/52
f 65/69/53 66/80/53 54/54/53
f 54/54/54 66/80/54 67/70/54
f 67/71/55 68/83/55 56/59/55
f 56/59/56 68/83/56 69/72/56
f 57/60/57 69/72/57 70/73/57
f 58/74/58 70/73/58 71/75/58
f 59/61/59 71/75/59 72/76/59
f 60/63/60 72/76/60 61/64/60
f 61/64/61 73/88/61 74/77/61
f 74/77/62 75/90/62 63/66/62
f 63/66/63 75/90/63 76/78/63
f 76/78/64 77/79/64 65/69/64
f 77/79/65 78/94/65 66/80/65
f 66/80/66 78/94/66 79/81/66
f 79/82/67 80/97/67 68/83/67
f 68/83/68 80/97/68 81/84/68
f 69/72/69 81/84/69 82/85/69
f 82/85/70 83/86/70 71/75/70
f 83/86/71 84/87/71 72/76/71
f 84/87/72 73/88/72 61/64/72
f 73/88/73 85/102/73 86/89/73
f 86/89/74 87/91/74 75/90/74
f 87/91/75 88/105/75 76/78/75
f 76/78/76 88/105/76 89/92/76
f 77/79/77 89/92/77 90/93/77
f 78/94/78 90/93/78 91/95/78
f 91/96/79 92/98/79 80/97/79
f 92/98/80 93/99/80 81/84/80
f 93/99/81 94/110/81 82/85/81
f 82/85/82 94/110/82 95/100/82
f 83/86/83 95/100/83 96/101/83
f 96/101/84 85/102/84 73/88/84
f 85/102/85 97/113/85 98/103/85
f 98/103/86 99/115/86 87/91/86
f 87/91/87 99/115/87 100/104/87
f 100/104/88 101/106/88 89/92/88
f 101/106/89 102/107/89 90/93/89
f 102/107/90 103/119/90 91/95/90
f 91/96/91 103/120/91 104/108/91
f 92/98/92 104/108/92 105/109/92
f 105/109/93 106/111/93 94/110/93
f 106/111/94 107/124/94 95/100/94
f 95/100/95 107/124/95 108/112/95
f 108/112/96 97/113/96 85/102/96
f 97/113/97 109/127/97 110/114/97
f 110/114/98 111/129/98 99/115/98
f 99/115/99 111/129/99 112/116/99
f 100/104/100 112/116/100 113/117/100
f 113/117/101 114/118/101 102/107/101
f 114/118/102 115/133/102 103/119/102
f 103/120/103 115/135/103 116/121/103
f 116/121/104 117/122/104 105/109/104
f 117/122/105 118/123/105 106/111/105
f 118/123/106 119/139/106 107/124/106
f 107/124/107 119/139/107 120/125/107
f 120/125/108 109/127/108 97/113/108
f 121/126/109 122/143/109 110/114/109
f 110/114/110 122/143/110 123/128/110
f 123/128/111 124/146/111 112/116/111
f 112/116/112 124/146/112 125/130/112
f 113/117/113 125/130/113 126/131/113
f 114/118/114 126/131/114 127/132/114
f 127/134/115 128/136/115 116/121/115
f 128/136/116 129/137/116 117/122/116
f 129/137/117 130/138/117 118/123/117
f 130/138/118 131/140/118 119/139/118
f 131/140/119 132/141/119 120/125/119
f 132/141/120 121/126/120 109/127/120
f 133/142/121 134/144/121 122/143/121
f 134/144/122 135/145/122 123/128/122
f 135/145/123 136/147/123 124/146/123
f 136/147/124 137/148/124 125/130/124
f 137/148/125 138/159/125 126/131/125
f 126/131/126 138/159/126 139/149/126
f 139/150/127 140/162/127 128/136/127
f 128/136/128 140/162/128 141/151/128
f 129/137/129 141/151/129 142/152/129
f 130/138/130 142/152/130 143/153/130
f 131/140/131 143/153/131 144/154/131
f 132/141/132 144/154/132 133/142/132
f 133/142/133 145/168/133 146/155/133
f 134/144/134 146/155/134 147/156/134
f 135/145/135 147/156/135 148/157/135
f 148/157/136 149/158/136 137/148/136
f 149/158/137 150/160/137 138/159/137
f 150/160/138 151/173/138 139/149/138
f 151/161/139 152/175/139 140/162/139
f 140/162/140 152/175/140 153/163/140
f 153/163/141 154/164/141 142/152/141
f 154/164/142 155/165/142 143/153/142
f 155/165/143 156/166/143 144/154/143
f 156/166/144 145/168/144 133/142/144
f 157/167/145 158/169/145 146/155/145
f 158/169/146 159/170/146 147/156/146
f 159/170/147 160/171/147 148/157/147
f 160/171/148 161/184/148 149/158/148
f 149/158/149 161/184/149 162/172/149
f 162/172/150 163/186/150 151/173/150
f 163/174/151 164/176/151 152/175/151
f 164/176/152 165/188/152 153/163/152
f 153/163/153 165/188/153 166/177/153
f 154/164/154 166/177/154 167/178/154
f 155/165/155 167/178/155 168/179/155
f 156/166/156 168/179/156 157/167/156
f 157/167/157 169/194/157 170/180/157
f 158/169/158 170/180/158 171/181/158
f 159/170/159 171/181/159 172/182/159
f 160/171/160 172/182/160 173/183/160
f 161/184/161 173/183/161 174/185/161
f 174/185/162 175/199/162 163/186/162
f 163/174/163 175/200/163 176/187/163
f 176/187/164 177/189/164 165/188/164
f 177/189/165 178/190/165 166/177/165
f 178/190/166 179/191/166 167/178/166
f 179/191/167 180/192/167 168/179/167
f 180/192/168 169/194/168 157/167/168
f 181/193/169 182/195/169 170/180/169
f 182/195/170 183/207/170 171/181/170
f 171/181/171 183/207/171 184/196/171
f 184/196/172 185/197/172 173/183/172
f 185/197/173 186/198/173 174/185/173
f 186/198/174 187/212/174 175/199/174
f 175/200/175 187/214/175 188/201/175
f 176/187/176 188/201/176 189/202/176
f 177/189/177 189/202/177 190/203/177
f 190/203/178 191/217/178 179/191/178
f 179/191/179 191/217/179 192/204/179
f 192/204/180 181/193/180 169/194/180
f 193/205/181 194/206/181 182/195/181
f 194/206/182 195/208/182 183/207/182
f 195/208/183 196/209/183 184/196/183
f 196/209/184 197/210/184 185/197/184
f 197/210/185 198/224/185 186/198/185
f 186/198/186 198/224/186 199/211/186
f 199/213/187 200/227/187 188/201/187
f 188/201/188 200/227/188 201/215/188
f 201/215/189 202/230/189 190/203/189
f 190/203/190 202/230/190 203/216/190
f 191/217/191 203/216/191 204/218/191
f 192/204/192 204/218/192 193/205/192
f 205/219/193 206/220/193 194/206/193
f 206/220/194 207/221/194 195/208/194
f 207/221/195 208/222/195 196/209/195
f 208/222/196 209/236/196 197/210/196
f 197/210/197 209/236/197 210/223/197
f 198/224/198 210/223/198 211/225/198
f 211/226/199 212/228/199 200/227/199
f 212/228/200 213/229/200 201/215/200
f 213/229/201 214/242/201 202/230/201
f 202/230/202 214/242/202 215/231/202
f 203/216/203 215/231/203 216/232/203
f 204/218/204 216/232/204 205/219/204
f 217/233/205 218/245/205 206/220/205
f 206/220/206 218/245/206 219/234/206
f 207/221/207 219/234/207 220/235/207
f 220/235/208 221/237/208 209/236/208
f 221/237/209 222/238/209 210/223/209
f 222/238/210 223/250/210 211/225/210
f 211/226/211 223/252/211 224/239/211
f 212/228/212 224/239/212 225/240/212
f 213/229/213 225/240/213 226/241/213
f 226/241/214 227/243/214 215/231/214
f 227/243/215 228/257/215 216/232/215
f 216/232/216 228/257/216 217/233/216
f 229/244/217 230/260/217 218/245/217
f 218/245/218 230/260/218 231/246/218
f 219/234/219 231/246/219 232/247/219
f 220/235/220 232/247/220 233/248/220
f 221/237/221 233/248/221 234/249/221
f 234/249/222 235/264/222 223/250/222
f 235/251/223 236/253/223 224/239/223
f 236/253/224 237/254/224 225/240/224
f 237/254/225 238/255/225 226/241/225
f 238/255/226 239/256/226 227/243/226
f 239/256/227 240/258/227 228/257/227
f 240/258/228 229/244/228 217/233/228
f 229/244/229 241/271/229 242/259/229
f 242/259/230 243/273/230 231/246/230
f 231/246/231 243/273/231 244/261/231
f 232/247/232 244/261/232 245/262/232
f 233/248/233 245/262/233 246/263/233
f 246/263/234 247/277/234 235/264/234
f 235/251/235 247/278/235 248/265/235
f 248/265/236 249/266/236 237/254/236
f 249/266/237 250/267/237 238/255/237
f 250/267/238 251/268/238 239/256/238
f 251/268/239 252/269/239 240/258/239
f 252/269/240 241/271/240 229/244/240
f 253/270/241 254/272/241 242/259/241
f 254/272/242 255/285/242 243/273/242
f 243/273/243 255/285/243 256/274/243
f 256/274/244 257/275/244 245/262/244
f 257/275/245 258/276/245 246/263/245
f 258/276/246 259/289/246 247/277/246
f 247/278/247 259/291/247 260/279/247
f 248/265/248 260/279/248 261/280/248
f 249/266/249 261/280/249 262/281/249
f 262/281/250 263/282/250 251/268/250
f 263/282/251 264/283/251 252/269/251
f 264/283/252 253/270/252 241/271/252
f 253/270/253 265/296/253 266/284/253
f 266/284/254 267/286/254 255/285/254
f 267/286/255 268/299/255 256/274/255
f 256/274/256 268/299/256 269/287/256
f 257/275/257 269/287/257 270/288/257
f 270/288/258 271/302/258 259/289/258
f 271/290/259 272/292/259 260/279/259
f 272/292/260 273/293/260 261/280/260
f 273/293/261 274/305/261 262/281/261
f 262/281/262 274/305/262 275/294/262
f 263/282/263 275/294/263 276/295/263
f 276/295/264 265/296/264 253/270/264
f 265/296/265 277/309/265 278/297/265
f 278/297/266 279/298/266 267/286/266
f 279/298/267 280/300/267 268/299/267
f 280/300/268 281/313/268 269/287/268
f 269/287/269 281/313/269 282/301/269
f 282/301/270 283/315/270 271/302/270
f 271/290/271 283/317/271 284/303/271
f 284/303/272 285/319/272 273/293/272
f 273/293/273 285/319/273 286/304/273
f 286/304/274 287/306/274 275/294/274
f 287/306/275 288/307/275 276/295/275
f 288/307/276 277/309/276 265/296/276
f 289/308/277 290/310/277 278/297/277
f 290/310/278 291/311/278 279/298/278
f 291/311/279 292/334/279 280/300/279
f 280/300/280 292/334/280 293/312/280
f 293/312/281 294/326/281 282/301/281
f 282/301/282 294/326/282 295/314/282
f 295/316/283 296/318/283 284/303/283
f 296/318/284 297/320/284 285/319/284
f 297/320/285 298/321/285 286/304/285
f 298/321/286 299/336/286 287/306/286
f 287/306/287 299/336/287 300/322/287
f 300/322/288 289/308/288 277/309/288
f 323/323/289 324/347/289 1/3/289
f 304/324/290 303/351/290 298/321/290
f 308/325/291 307/343/291 294/326/291
f 9/17/292 316/344/292 317/327/292
f 289/308/293 312/330/293 311/328/293
f 5/9/294 320/346/294 321/329/294
f 300/322/295 301/337/295 312/330/295
f 305/331/296 304/324/296 297/320/296
f 313/332/296 314/339/296 11/21/296
f 309/333/297 308/325/297 293/312/297
f 8/14/295 317/327/295 318/335/295
f 321/329/297 322/341/297 3/5/297
f 299/336/292 302/342/292 301/337/292
f 306/338/298 305/331/298 296/318/298
f 314/339/290 315/352/290 10/19/290
f 291/311/294 310/345/294 309/333/294
f 7/12/293 318/335/293 319/340/293
f 322/341/291 323/323/291 2/2/291
f 298/321/299 303/351/299 302/342/299
f 307/343/289 306/338/289 295/314/289
f 10/19/299 315/352/299 316/344/299
f 290/310/300 311/328/300 310/345/300
f 6/11/300 319/340/300 320/346/300
f 314/339/301 313/332/301 322/341/301
f 313/332/301 324/347/301 322/341/301
f 324/347/301 323/323/301 322/341/301
f 322/341/301 321/329/301 320/346/301
f 320/346/301 319/340/301 318/335/301
f 318/335/301 317/327/301 316/344/301
f 316/344/301 315/352/301 318/335/301
f 315/352/301 314/339/301 318/335/301
f 322/341/301 320/346/301 318/335/301
f 312/330/301 301/337/301 302/342/301
f 302/342/301 303/351/301 312/330/301
f 303/351/301 304/324/301 312/330/301
f 304/324/301 305/331/301 308/325/301
f 305/331/301 306/338/301 308/325/301
f 306/338/301 307/343/301 308/325/301
f 308/325/301 309/333/301 310/345/301
f 310/345/301 311/328/301 312/330/301
f 308/325/301 310/345/301 312/330/301
f 324/347/298 313/332/298 12/23/298
f 19/353/302 7/354/302 295/355/302
f 7/354/303 318/356/303 295/355/303
f 318/356/303 306/357/303 295/355/303
f 295/355/302 283/358/302 271/349/302
f 271/349/302 259/359/302 223/360/302
f 259/359/302 247/361/302 223/360/302
f 247/361/302 235/362/302 223/360/302
f 223/360/302 211/363/302 199/364/302
f 199/364/302 187/365/302 175/350/302
f 175/350/302 163/366/302 151/367/302
f 151/367/302 139/368/302 127/369/302
f 127/369/302 115/370/302 79/371/302
f 115/370/302 103/372/302 79/371/302
f 103/372/302 91/373/302 79/371/302
f 79/371/302 67/374/302 55/375/302
f 55/375/302 43/376/302 79/371/302
f 43/376/302 31/348/302 79/371/302
f 31/348/302 19/353/302 295/355/302
f 295/355/302 271/349/302 31/348/302
f 223/360/302 199/364/302 271/349/302
f 199/364/302 175/350/302 271/349/302
f 175/350/302 151/367/302 79/371/302
f 151/367/302 127/369/302 79/371/302
f 79/371/302 31/348/302 175/350/302
